<?xml version="1.0" standalone="no"?>
<!DOCTYPE svg PUBLIC "-//W3C//DTD SVG 20010904//EN"
 "http://www.w3.org/TR/2001/REC-SVG-20010904/DTD/svg10.dtd">
<svg version="1.0" xmlns="http://www.w3.org/2000/svg"
 width="100.000000pt" height="100.000000pt" viewBox="0 0 100.000000 100.000000"
 preserveAspectRatio="xMidYMid meet">

<g transform="translate(0.000000,100.000000) scale(0.100000,-0.100000)"
fill="#000000" stroke="none">
<path d="M500 900 c-13 -13 -20 -34 -20 -58 0 -34 -3 -39 -32 -47 -20 -6 -41
-23 -53 -42 -19 -30 -24 -32 -75 -33 -92 0 -160 -61 -160 -141 0 -31 -5 -38
-29 -48 -30 -13 -51 -47 -51 -85 0 -15 -7 -26 -20 -29 -26 -7 -26 -27 0 -34
13 -3 20 -14 20 -29 0 -38 21 -72 51 -85 26 -10 29 -16 29 -58 0 -55 26 -103
72 -131 30 -18 51 -20 268 -20 217 0 238 2 268 20 46 28 72 76 72 131 0 42 3
48 29 58 30 13 51 47 51 85 0 15 7 26 20 29 11 3 20 10 20 17 0 7 -9 14 -20
17 -13 3 -20 14 -20 29 0 38 -21 72 -51 85 -24 10 -29 17 -29 48 0 80 -68 141
-160 141 -51 1 -56 3 -75 33 -12 19 -33 36 -53 42 -30 9 -33 12 -30 45 2 28 8
36 26 38 18 3 25 -3 33 -27 18 -52 64 -66 99 -31 23 23 25 49 6 75 -21 29
-159 32 -186 5z m156 -31 c10 -17 -13 -36 -27 -22 -12 12 -4 33 11 33 5 0 12
-5 16 -11z m-98 -121 c23 -23 12 -28 -58 -28 -38 0 -70 4 -70 8 0 19 27 32 70
32 25 0 51 -5 58 -12z m191 -82 c46 -24 51 -50 51 -276 0 -226 -5 -252 -51
-276 -37 -19 -454 -20 -494 -2 -50 23 -55 48 -55 280 0 228 5 252 50 275 38
19 461 18 499 -1z m-589 -266 c0 -98 -4 -112 -28 -88 -16 16 -16 160 0 176 24
24 28 10 28 -88z m708 88 c7 -7 12 -42 12 -88 0 -71 -9 -100 -32 -100 -4 0 -8
45 -8 100 0 98 4 112 28 88z"/>
<path d="M585 535 c-16 -15 -25 -36 -25 -55 0 -19 9 -40 25 -55 49 -50 135
-15 135 55 0 41 -39 80 -80 80 -19 0 -40 -9 -55 -25z m85 -30 c26 -32 -13 -81
-47 -59 -23 14 -28 41 -13 59 16 19 44 19 60 0z"/>
<path d="M300 528 c0 -6 7 -20 17 -30 15 -17 15 -19 0 -36 -33 -37 -12 -58 25
-25 17 15 19 15 36 0 37 -33 58 -12 25 25 -15 17 -15 19 0 36 33 37 12 58 -25
25 -17 -15 -19 -15 -36 0 -22 20 -42 22 -42 5z"/>
<path d="M337 255 c-20 -14 -37 -30 -37 -35 0 -19 21 -20 50 -3 29 17 31 17
60 0 29 -17 31 -17 60 0 29 17 31 17 60 0 29 -17 31 -17 60 0 29 17 31 17 60
0 29 -18 50 -16 50 3 0 6 -18 21 -39 36 -39 26 -40 26 -70 8 -30 -18 -32 -18
-61 -1 -29 17 -31 17 -60 0 -28 -16 -32 -16 -59 0 -36 21 -29 22 -74 -8z"/>
</g>
</svg>
